<svg xmlns="http://www.w3.org/2000/svg" xmlns:xlink="http://www.w3.org/1999/xlink" width="600" zoomAndPan="magnify" viewBox="0 0 450 187.499995" height="250" preserveAspectRatio="xMidYMid meet" version="1.0"><defs><clipPath id="2eda46e04b"><path d="M 0.597656 0 L 169 0 L 169 167 L 0.597656 167 Z M 0.597656 0 " clip-rule="nonzero"/></clipPath><clipPath id="c7b20dc254"><path d="M 36 42 L 224 42 L 224 187 L 36 187 Z M 36 42 " clip-rule="nonzero"/></clipPath><clipPath id="912fee9366"><path d="M 134 91 L 242 91 L 242 187 L 134 187 Z M 134 91 " clip-rule="nonzero"/></clipPath><clipPath id="9677bf4711"><path d="M 206 2 L 409 2 L 409 187 L 206 187 Z M 206 2 " clip-rule="nonzero"/></clipPath><clipPath id="169a3306cb"><path d="M 295 0 L 449.402344 0 L 449.402344 142 L 295 142 Z M 295 0 " clip-rule="nonzero"/></clipPath><clipPath id="b1e219d071"><path d="M 0.597656 84 L 83 84 L 83 187 L 0.597656 187 Z M 0.597656 84 " clip-rule="nonzero"/></clipPath></defs><g clip-path="url(#2eda46e04b)"><path stroke-linecap="butt" transform="matrix(0.570742, -0.483493, 0.483493, 0.570742, -13.309092, 148.009511)" fill="none" stroke-linejoin="miter" d="M -0.00284339 1.999955 L 287.220297 1.998827 " stroke="#2d4351" stroke-width="4" stroke-opacity="1" stroke-miterlimit="4"/></g><g clip-path="url(#c7b20dc254)"><path stroke-linecap="butt" transform="matrix(0.55477, -0.501739, 0.501739, 0.55477, 52.771922, 196.438544)" fill="none" stroke-linejoin="miter" d="M 0.00301197 2.000545 L 276.148113 1.99706 " stroke="#2d4351" stroke-width="4" stroke-opacity="1" stroke-miterlimit="4"/></g><path stroke-linecap="butt" transform="matrix(0.554553, 0.501979, -0.501979, 0.554553, 144.252501, 0.00267821)" fill="none" stroke-linejoin="miter" d="M 0.00278829 2.000177 L 323.496345 1.999505 " stroke="#2d4351" stroke-width="4" stroke-opacity="1" stroke-miterlimit="4"/><g clip-path="url(#912fee9366)"><path stroke-linecap="butt" transform="matrix(0.541443, 0.516092, -0.516092, 0.541443, 152.619583, 107.569153)" fill="none" stroke-linejoin="miter" d="M -0.00113238 2.001642 L 135.584709 1.997624 " stroke="#2d4351" stroke-width="4" stroke-opacity="1" stroke-miterlimit="4"/></g><g clip-path="url(#9677bf4711)"><path stroke-linecap="butt" transform="matrix(-0.542275, 0.515218, -0.515218, -0.542275, 392.850386, 20.872159)" fill="none" stroke-linejoin="miter" d="M 0.000987126 1.998257 L 310.401293 2.001831 " stroke="#2d4351" stroke-width="4" stroke-opacity="1" stroke-miterlimit="4"/></g><g clip-path="url(#169a3306cb)"><path stroke-linecap="butt" transform="matrix(0.555822, 0.500574, -0.500574, 0.555822, 312.984052, -7.405761)" fill="none" stroke-linejoin="miter" d="M 0.00248847 1.999826 L 260.861645 1.997924 " stroke="#2d4351" stroke-width="4" stroke-opacity="1" stroke-miterlimit="4"/></g><g clip-path="url(#b1e219d071)"><path stroke-linecap="butt" transform="matrix(0.552926, 0.50377, -0.50377, 0.552926, -26.304946, 99.856388)" fill="none" stroke-linejoin="miter" d="M -0.00118675 1.998724 L 168.596253 1.997334 " stroke="#2d4351" stroke-width="4" stroke-opacity="1" stroke-miterlimit="4"/></g></svg>